<svg width="81" height="36" viewBox="0 0 81 36" fill="none" xmlns="http://www.w3.org/2000/svg">
<g clip-path="url(#clip0_207_2651)">
<path fill-rule="evenodd" clip-rule="evenodd" d="M10.2208 32.1707C8.69747 32.1707 7.33906 32.1288 6.13689 32.0072C5.47287 31.9392 4.97233 31.3866 4.97233 30.7183V28.6828C4.97233 27.8785 5.51338 27.3374 6.4783 27.4054C7.50542 27.4778 8.75099 27.5732 10.2208 27.5732H12.0826C15.9221 27.5732 18.921 27.9074 18.9759 23.1277C18.9759 20.7291 18.9759 18.332 18.9759 15.9349C18.9253 11.4893 16.628 11.4893 12.0841 11.4893C7.54014 11.4893 5.19078 11.4893 5.19078 16.0854C5.19078 20.6814 7.65587 20.6814 12.0841 20.6814C13.5539 20.6814 14.8081 20.6814 15.8266 20.5136C16.6193 20.3834 17.3325 20.9866 17.3325 21.791V23.825C17.3325 24.4919 16.832 25.0459 16.168 25.1139C14.9673 25.2354 13.6074 25.2774 12.0841 25.2774C4.04069 25.2774 0.593307 24.1273 0.593307 16.0854C0.593307 8.0434 4.04068 6.89331 12.0826 6.89331C20.1246 6.89331 23.572 8.04195 23.572 16.0854V22.9787C23.572 31.0206 20.1246 32.1707 12.0826 32.1707H10.2208Z" fill="#1D1D1B"/>
<path d="M43.5315 6.89331C51.5734 6.89331 55.0208 8.04195 55.0208 16.0854C55.0208 24.1288 51.5734 25.2774 43.5315 25.2774C42.0747 25.2774 40.7683 25.2398 39.6067 25.1298C39.015 25.0734 38.5651 24.5816 38.5651 23.9855V21.438C38.5651 21.1443 38.6823 20.8926 38.908 20.7045C39.1322 20.5165 39.4027 20.4441 39.6906 20.4962C40.7264 20.6814 42.0139 20.6814 43.5315 20.6814C47.9597 20.6814 50.4248 20.6814 50.4248 16.0854C50.4248 11.4893 48.1608 11.511 43.5647 11.511C42.6837 11.511 42.1383 11.4893 40.9231 11.634C40.2953 11.7092 39.7412 11.1262 39.7412 10.494V8.19675C39.7412 7.56456 40.2693 7.17107 40.8899 7.0481C41.6624 6.89476 42.6504 6.89476 43.5315 6.89476" fill="#1D1D1B"/>
<path fill-rule="evenodd" clip-rule="evenodd" d="M25.8331 27.5949C29.1083 27.5819 31.2769 27.0872 31.2769 22.2336C31.2769 14.0716 31.1597 10.1541 31.0483 8.12586C31.0309 7.79891 31.1365 7.51103 31.3608 7.27233C31.5864 7.03508 31.8671 6.91356 32.1955 6.91356H34.5101C35.1163 6.91356 35.6154 7.38083 35.6559 7.98553C35.7687 9.66799 35.8729 13.5841 35.8729 21.4669C35.8729 29.3497 33.0736 31.9045 25.8808 32.1693C25.5568 32.1808 25.2747 32.0723 25.0418 31.8481C24.8089 31.6239 24.6902 31.3447 24.6902 31.0206V28.7436C24.6902 28.1128 25.2038 27.5978 25.8345 27.5949H25.8331Z" fill="#1D1D1B"/>
<path d="M25.8331 27.5949C29.1083 27.5819 31.2769 27.0872 31.2769 22.2336C31.2769 14.0716 31.1597 10.1541 31.0483 8.12586C31.0309 7.79891 31.1365 7.51103 31.3608 7.27233C31.5864 7.03508 31.8671 6.91356 32.1955 6.91356H34.5101C35.1163 6.91356 35.6154 7.38083 35.6559 7.98553C35.7687 9.66799 35.8729 13.5841 35.8729 21.4669C35.8729 29.3497 33.0736 31.9045 25.8808 32.1693C25.5568 32.1808 25.2747 32.0723 25.0418 31.8481C24.8089 31.6239 24.6902 31.3447 24.6902 31.0206V28.7436C24.6902 28.1128 25.2038 27.5978 25.8345 27.5949H25.8331Z" fill="#1D1D1B"/>
<path fill-rule="evenodd" clip-rule="evenodd" d="M57.4266 16.0854V1.14864C57.4266 0.516456 57.943 0 58.5752 0H60.8725C61.5047 0 62.0211 0.516456 62.0211 1.14864V16.0854C62.0211 20.6814 64.4862 20.6814 68.9145 20.6814C73.3427 20.6814 75.8078 20.6814 75.8078 16.0854V12.7392C75.8078 12.1071 76.3242 11.5906 76.9564 11.5906H79.2537C79.8859 11.5906 80.4023 12.1071 80.4023 12.7392V16.0854C80.4023 24.1273 76.955 25.2774 68.913 25.2774C60.8711 25.2774 57.4237 24.1288 57.4237 16.0854H57.4266Z" fill="#1D1D1B"/>
<path d="M57.4266 16.0854V1.14864C57.4266 0.516456 57.943 0 58.5752 0H60.8725C61.5047 0 62.0211 0.516456 62.0211 1.14864V16.0854C62.0211 20.6814 64.4862 20.6814 68.9145 20.6814C73.3427 20.6814 75.8078 20.6814 75.8078 16.0854V12.7392C75.8078 12.1071 76.3242 11.5906 76.9564 11.5906H79.2537C79.8859 11.5906 80.4023 12.1071 80.4023 12.7392V16.0854C80.4023 24.1273 76.955 25.2774 68.913 25.2774C60.8711 25.2774 57.4237 24.1288 57.4237 16.0854H57.4266Z" fill="#1D1D1B"/>
<path fill-rule="evenodd" clip-rule="evenodd" d="M63.1712 27.5747H73.8953C74.9499 27.5747 75.8107 28.4354 75.8107 29.49V34.8513C75.8107 35.4835 75.2942 36 74.662 36H72.3647C71.7325 36 71.2161 35.4835 71.2161 34.8513V32.5541C71.2161 32.3428 71.0439 32.1707 70.8327 32.1707H63.1727C62.5405 32.1707 62.024 31.6542 62.024 31.0221V28.7248C62.024 28.0926 62.5405 27.5761 63.1727 27.5761L63.1712 27.5747Z" fill="#1D1D1B"/>
<path d="M63.1712 27.5747H73.8953C74.9499 27.5747 75.8107 28.4354 75.8107 29.49V34.8513C75.8107 35.4835 75.2942 36 74.662 36H72.3647C71.7325 36 71.2161 35.4835 71.2161 34.8513V32.5541C71.2161 32.3428 71.0439 32.1707 70.8327 32.1707H63.1727C62.5405 32.1707 62.024 31.6542 62.024 31.0221V28.7248C62.024 28.0926 62.5405 27.5761 63.1727 27.5761L63.1712 27.5747Z" fill="#1D1D1B"/>
</g>
<defs>
<clipPath id="clip0_207_2651">
<rect width="79.8134" height="36" fill="white" transform="translate(0.593307)"/>
</clipPath>
</defs>
</svg>
